<svg width="144" height="18" viewBox="0 0 144 18" xmlns="http://www.w3.org/2000/svg">
    <path d="M26.315 4c1.402 0 2.416.486 3.36 1.291.112.112.126.278.015.39l-.376.374c-.11.14-.222.125-.36-.013C28.23 5.417 27.244 5 26.3 5c-2.195 0-3.875 1.847-3.875 4 0 2.139 1.68 3.986 3.875 3.986 1.208 0 1.916-.486 2.652-1.042.14-.111.25-.097.334-.042l.416.375c.111.084.084.278-.013.375-.945.917-2.14 1.348-3.375 1.348-2.778 0-5.014-2.209-5.014-4.986A5.003 5.003 0 0 1 26.315 4zm12.513 9.5l4.222-9.347c.042-.084.111-.153.237-.153h.138c.125 0 .195.07.237.153l4.194 9.347c.083.18-.028.36-.236.36h-.556a.255.255 0 0 1-.236-.152L45.8 11.416h-4.93l-1.014 2.292a.256.256 0 0 1-.236.153h-.556c-.208 0-.319-.18-.236-.361zm6.597-2.945c-.68-1.514-1.347-3.041-2.027-4.555h-.111l-2.028 4.555h4.166zm12.278-6.152c0-.14.11-.264.264-.264h3.07c1.708 0 3.11 1.389 3.11 3.07 0 1.721-1.402 3.124-3.097 3.124h-2.292v3.264a.273.273 0 0 1-.263.264h-.528a.264.264 0 0 1-.264-.264V4.403zm3.264 4.902a2.12 2.12 0 0 0 2.11-2.125c0-1.125-.971-1.986-2.11-1.986h-2.209v4.111h2.209zM72.564 13.5l4.222-9.347c.042-.084.11-.153.236-.153h.139c.125 0 .194.07.236.153l4.194 9.347c.084.18-.027.36-.236.36H80.8a.255.255 0 0 1-.236-.152l-1.028-2.292h-4.93l-1.014 2.292a.256.256 0 0 1-.237.153H72.8c-.209 0-.32-.18-.236-.361zm6.597-2.945C78.48 9.041 77.814 7.514 77.133 6h-.11l-2.029 4.555h4.167zM95.688 4c1.403 0 2.417.486 3.361 1.291.111.112.126.278.014.39l-.375.374c-.111.14-.222.125-.36-.013C97.604 5.417 96.617 5 95.674 5 93.48 5 91.8 6.847 91.8 9c0 2.139 1.68 3.986 3.875 3.986 1.208 0 1.916-.486 2.652-1.042.14-.111.25-.097.334-.042l.416.375c.111.084.083.278-.014.375C98.12 13.57 96.924 14 95.688 14c-2.777 0-5.013-2.209-5.013-4.986A5.003 5.003 0 0 1 95.688 4zm13.847.403c0-.14.125-.264.264-.264h.555c.14 0 .264.125.264.264v9.194a.273.273 0 0 1-.264.264h-.555a.273.273 0 0 1-.264-.264V4.403zm13.625.666h-2.417a.264.264 0 0 1-.263-.264v-.402c0-.14.11-.264.263-.264h5.89c.152 0 .263.125.263.264v.402a.264.264 0 0 1-.264.264h-2.416v8.528a.273.273 0 0 1-.264.264h-.528a.273.273 0 0 1-.264-.264V5.069zm16.013 4.111l-3.347-4.639c-.11-.18 0-.402.222-.402h.653c.097 0 .18.07.223.125l2.805 3.874 2.805-3.874c.042-.055.125-.125.223-.125h.652c.222 0 .333.222.222.402l-3.388 4.625v4.431a.273.273 0 0 1-.264.264h-.542a.264.264 0 0 1-.264-.264V9.18zM9.014 0c2.525-.003 4.351.87 6.053 2.318.2.2.225.5.026.7l-.674.675c-.2.25-.4.226-.65-.024C12.466 2.546 10.69 1.798 8.99 1.8c-3.95.005-6.97 3.334-6.966 7.209.005 3.85 3.034 7.171 6.984 7.166 2.175-.003 3.449-.88 4.773-1.88.25-.201.45-.177.6-.077l.75.674c.2.15.15.5-.024.675-1.698 1.653-3.847 2.43-6.072 2.433-5 .006-9.03-3.964-9.036-8.964A9.005 9.005 0 0 1 9.014 0zm-.107 8.701a1.67 1.67 0 1 0 0-3.34 1.67 1.67 0 0 0 0 3.34zm2.784 3.189H6.233a.34.34 0 0 1-.341-.341v-1.505a.34.34 0 0 1 .34-.341h5.46a.34.34 0 0 1 .34.34v1.506a.34.34 0 0 1-.34.34z" fill="#FFF" fill-rule="evenodd"/>
</svg>
