<svg width="181" height="40" viewBox="0 0 181 40" xmlns="http://www.w3.org/2000/svg">
    <g fill="none" fill-rule="evenodd">
        <path d="M52.235 13.451c1.533 0 2.64.531 3.672 1.411.121.121.136.304.015.425l-.41.41c-.121.151-.242.136-.394-.016-.789-.682-1.866-1.138-2.898-1.138-2.397 0-4.233 2.018-4.233 4.37 0 2.336 1.836 4.354 4.233 4.354 1.32 0 2.094-.53 2.898-1.138.152-.121.273-.106.364-.045l.455.41c.121.09.091.303-.015.41-1.032 1-2.336 1.471-3.687 1.471-3.034 0-5.477-2.412-5.477-5.447a5.465 5.465 0 0 1 5.477-5.477zm13.67 10.378l4.612-10.21c.046-.092.121-.168.258-.168h.152c.137 0 .212.076.258.167l4.582 10.21c.091.198-.03.395-.258.395h-.607a.279.279 0 0 1-.258-.167l-1.122-2.503h-5.387l-1.107 2.503a.28.28 0 0 1-.258.167h-.607c-.228 0-.349-.197-.258-.394zm7.207-3.217c-.744-1.654-1.472-3.322-2.215-4.976h-.122l-2.215 4.976h4.552zm13.412-6.72c0-.153.121-.289.288-.289h3.353c1.866 0 3.399 1.517 3.399 3.353 0 1.881-1.533 3.413-3.384 3.413h-2.503v3.566a.299.299 0 0 1-.288.288h-.577a.288.288 0 0 1-.288-.288V13.891zm3.565 5.355a2.318 2.318 0 0 0 2.306-2.322c0-1.229-1.062-2.17-2.306-2.17h-2.412v4.492h2.412zm12.669 4.582l4.612-10.21c.046-.092.121-.168.258-.168h.152c.136 0 .212.076.258.167l4.582 10.21c.09.198-.03.395-.258.395h-.607a.279.279 0 0 1-.258-.167l-1.123-2.503h-5.386l-1.107 2.503a.28.28 0 0 1-.259.167h-.606c-.228 0-.349-.197-.258-.394zm7.207-3.217c-.744-1.654-1.472-3.322-2.215-4.976h-.122l-2.215 4.976h4.552zm18.054-7.16c1.533 0 2.64.53 3.672 1.41.121.121.137.304.015.425l-.41.41c-.121.151-.242.136-.394-.016-.789-.682-1.866-1.138-2.898-1.138-2.397 0-4.233 2.018-4.233 4.37 0 2.336 1.836 4.354 4.233 4.354 1.32 0 2.094-.53 2.898-1.138.152-.121.273-.106.364-.045l.455.41c.121.09.091.303-.015.41-1.032 1-2.336 1.471-3.687 1.471-3.034 0-5.477-2.412-5.477-5.447a5.465 5.465 0 0 1 5.477-5.477zm15.127.439c0-.152.136-.288.288-.288h.606c.152 0 .289.136.289.288v10.044a.299.299 0 0 1-.289.288h-.606a.299.299 0 0 1-.288-.288V13.89zm14.884.728h-2.64a.288.288 0 0 1-.289-.288v-.44c0-.152.121-.288.289-.288h6.433c.166 0 .288.136.288.288v.44a.288.288 0 0 1-.288.288h-2.64v9.316a.299.299 0 0 1-.289.288h-.576a.299.299 0 0 1-.288-.288v-9.316zm17.492 4.491l-3.656-5.067c-.121-.197 0-.44.242-.44h.713c.107 0 .198.076.244.136l3.064 4.233 3.065-4.233c.046-.06.137-.136.243-.136h.713c.242 0 .364.243.242.44l-3.702 5.052v4.84a.298.298 0 0 1-.288.288h-.592a.288.288 0 0 1-.288-.288V19.11z" fill="#282828"/>
        <path d="M25.85 26.158H13.84a.75.75 0 0 1-.75-.75v-3.312a.75.75 0 0 1 .75-.75h12.01a.75.75 0 0 1 .75.75v3.312a.75.75 0 0 1-.75.75zm-6.125-7.015a3.673 3.673 0 0 0 3.674-3.675 3.674 3.674 0 1 0-7.349 0 3.674 3.674 0 0 0 3.675 3.675zM19.959 0c5.555-.007 9.573 1.913 13.316 5.099.44.439.497 1.099.058 1.54l-1.484 1.486c-.44.55-.88.497-1.43-.053-2.863-2.471-6.77-4.116-10.51-4.112-8.69.011-15.336 7.334-15.326 15.86.01 8.47 6.675 15.776 15.365 15.766 4.785-.006 7.588-1.935 10.5-4.139.55-.44.99-.386 1.32-.166l1.652 1.483c.44.33.331 1.1-.053 1.485-3.736 3.634-8.464 5.345-13.359 5.351-11 .014-19.866-8.72-19.88-19.72A19.812 19.812 0 0 1 19.96 0z" fill="#37899E"/>
    </g>
</svg>
