<svg xmlns="http://www.w3.org/2000/svg" viewBox="-571 825.2 17.9 15.4" width="18" height="15.55">
    <path fill="#FFF" d="M-555.5 827.2h-2.9v-1c0-.5-.4-1-1-1h-5.3c-.5 0-1 .4-1 1v1h-2.9c-1.3 0-2.4 1.1-2.4 2.4v8.5c0 1.3 1.1 2.4 2.4 2.4h13c1.3 0 2.4-1.1 2.4-2.4v-8.5c.1-1.3-1-2.4-2.3-2.4zm-8.9-.7h4.9v.8h-4.9v-.8zm-5.3 3.2c0-.7.5-1.3 1.2-1.3h13c.7 0 1.3.5 1.3 1.3v1.9c-1.6.9-3.7 1.5-6 1.7-.3-.7-1-1.2-1.7-1.2-.8 0-1.4.4-1.7 1.2-2.3-.2-4.5-.8-6-1.7v-1.9zm8.3 4.3c0 .4-.3.6-.6.6-.4 0-.6-.3-.6-.6s.3-.6.6-.6.6.3.6.6zm7.3 4.3c0 .7-.5 1.3-1.3 1.3h-13c-.6 0-1.3-.5-1.3-1.2V833h-.1.1c1.7.8 3.7 1.3 5.9 1.5.3.8 1 1.3 1.8 1.3s1.5-.5 1.8-1.3c2.2-.2 4.3-.7 6-1.5v5.3z"/>
</svg>
