<svg width="9" height="9" viewBox="0 0 9 9" xmlns="http://www.w3.org/2000/svg">
    <title>
        Slice 1
    </title>
    <path d="M1.617 5.845A2.998 2.998 0 0 1 3.73.733a2.998 2.998 0 0 1 2.114 5.112 2.978 2.978 0 0 1-4.228 0zm5.011.258a3.755 3.755 0 0 0-.246-5.012 3.754 3.754 0 0 0-5.291 0 3.754 3.754 0 0 0 0 5.291 3.707 3.707 0 0 0 2.64 1.085 3.77 3.77 0 0 0 2.372-.839l2.26 2.26A.357.357 0 0 0 8.62 9a.34.34 0 0 0 .257-.112.371.371 0 0 0 0-.526l-2.249-2.26z" fill="#FFF" fill-rule="evenodd"/>
</svg>
