<svg width="24" height="24" viewBox="0 0 24 24" xmlns="http://www.w3.org/2000/svg" xmlns:xlink="http://www.w3.org/1999/xlink">
    <title>
        Slice 1
    </title>
    <defs>
        <rect id="a" x="-322" y="-128" width="610" height="241" rx="4"/>
        <filter x="-50%" y="-50%" width="200%" height="200%" filterUnits="objectBoundingBox" id="b">
            <feOffset dy="2" in="SourceAlpha" result="shadowOffsetOuter1"/>
            <feGaussianBlur stdDeviation="2" in="shadowOffsetOuter1" result="shadowBlurOuter1"/>
            <feColorMatrix values="0 0 0 0 0 0 0 0 0 0 0 0 0 0 0 0 0 0 0.15 0" in="shadowBlurOuter1"/>
        </filter>
    </defs>
    <g fill="none" fill-rule="evenodd">
        <mask id="c" fill="#fff">
            <use xlink:href="#a"/>
        </mask>
        <use fill="#000" filter="url(#b)" xlink:href="#a"/>
        <use fill="#FFF" xlink:href="#a"/>
        <g mask="url(#c)">
            <path d="M0 0h24v24H0z"/>
            <path d="M2.889 4A.897.897 0 0 0 2 4.889v14.667c0 .484.404.888.889.888h15.555c.118 0 .23-.048.313-.131l3.111-3.112A.444.444 0 0 0 22 16.89v-12a.897.897 0 0 0-.889-.89H2.89zm0 .889H21.11v3.555H2.89V4.89zm4 .444a1.34 1.34 0 0 0-1.333 1.334A1.34 1.34 0 0 0 6.889 8a1.34 1.34 0 0 0 1.333-1.333A1.34 1.34 0 0 0 6.89 5.333zm10.222 0a1.34 1.34 0 0 0-1.333 1.334A1.34 1.34 0 0 0 17.11 8a1.34 1.34 0 0 0 1.333-1.333 1.34 1.34 0 0 0-1.333-1.334zm-10.222.89c.25 0 .444.193.444.444 0 .25-.193.444-.444.444a.438.438 0 0 1-.445-.444c0-.251.194-.445.445-.445zm10.222 0c.25 0 .445.193.445.444 0 .25-.194.444-.445.444a.438.438 0 0 1-.444-.444c0-.251.193-.445.444-.445zM2.89 9.332h18.22v7.111h-2.22a.897.897 0 0 0-.889.89v2.222H2.889V9.333zm1.555 1.111v8H16V14.89h3.556v-4.445H4.444zm.89.89H8V14H5.333v-2.667zm3.555 0h2.667V14H8.889v-2.667zm3.555 0h2.667V14h-2.667v-2.667zm3.556 0h2.667V14H16v-2.667zM5.333 14.888H8v2.667H5.333v-2.667zm3.556 0h2.667v2.667H8.889v-2.667zm3.555 0h2.667v2.667h-2.667v-2.667zm6.445 2.444h1.59l-1.59 1.59v-1.59z" fill="#282828" opacity=".8"/>
        </g>
    </g>
</svg>
