<svg xmlns="http://www.w3.org/2000/svg" viewBox="-283.3 410.6 20.5 20.5" width="18" height="18">
    <path fill="#fff" stroke="#fff" stroke-width=".5" d="M-273 430.9c-5.5 0-10-4.5-10-10s4.5-10 10-10 10 4.5 10 10-4.5 10-10 10zm0-19.1c-5 0-9.1 4.1-9.1 9.1s4.1 9.1 9.1 9.1 9.1-4.1 9.1-9.1-4.1-9.1-9.1-9.1zm-.4 14.6v-1.3c-.7 0-1.5-.2-2-.6l.3-.9c.5.4 1.2.5 1.8.6.9 0 1.5-.5 1.5-1.3 0-.7-.5-1.1-1.4-1.5-1.3-.5-2.1-1.1-2.1-2.2s.8-1.9 1.9-2.1v-1.3h.8v1.2c.8 0 1.3.2 1.7.4l-.3.8c-.5-.3-1-.4-1.6-.4-1 0-1.4.6-1.4 1.1 0 .7.5 1 1.6 1.5 1.3.5 2 1.2 2 2.3 0 1-.7 2-2 2.2v1.3l-.8.2z"/>
</svg>
