<svg width="20" height="16" viewBox="0 0 20 16" xmlns="http://www.w3.org/2000/svg">
    <path d="M.865 0A.873.873 0 0 0 0 .865v14.27c0 .472.393.865.865.865H16a.432.432 0 0 0 .304-.128l3.027-3.027a.432.432 0 0 0 .128-.304V.865A.873.873 0 0 0 18.595 0H.865zm0 .865h17.73v3.46H.865V.864zm3.892.432c-.712 0-1.298.586-1.298 1.298 0 .711.586 1.297 1.298 1.297.711 0 1.297-.586 1.297-1.297 0-.712-.586-1.298-1.297-1.298zm9.946 0c-.712 0-1.298.586-1.298 1.298 0 .711.586 1.297 1.298 1.297.711 0 1.297-.586 1.297-1.297 0-.712-.586-1.298-1.297-1.298zm-9.946.865c.244 0 .432.189.432.433a.426.426 0 0 1-.432.432.426.426 0 0 1-.433-.432c0-.244.189-.433.433-.433zm9.946 0c.244 0 .432.189.432.433a.426.426 0 0 1-.432.432.426.426 0 0 1-.433-.432c0-.244.189-.433.433-.433zM.865 5.19h17.73v6.92h-2.163a.873.873 0 0 0-.864.864v2.162H.865V5.19zm1.513 1.08v7.784h11.244v-3.46h3.46V6.27H2.377zm.865.865h2.595V9.73H3.243V7.135zm3.46 0h2.594V9.73H6.703V7.135zm3.46 0h2.594V9.73h-2.595V7.135zm3.459 0h2.594V9.73h-2.594V7.135zm-10.379 3.46h2.595v2.594H3.243v-2.594zm3.46 0h2.594v2.594H6.703v-2.594zm3.46 0h2.594v2.594h-2.595v-2.594zm6.27 2.378h1.547l-1.548 1.547v-1.547z" fill="#282828" fill-rule="evenodd"/>
</svg>
