<svg xmlns="http://www.w3.org/2000/svg" viewBox="-283.6 411.8 20.7 17.9" enable-background="new -283.6 411.8 20.7 17.9" width="18" height="18">
    <defs>
        <filter id="a" filterUnits="userSpaceOnUse" x="-283.6" y="411.8" width="20.7" height="17.9">
            <feColorMatrix values="1 0 0 0 0 0 1 0 0 0 0 0 1 0 0 0 0 0 1 0"/>
        </filter>
    </defs>
    <mask maskUnits="userSpaceOnUse" x="-283.6" y="411.8" width="20.7" height="17.9" id="b">
        <path fill="#FFF" d="M-285 408.9h24v24h-24v-24z" filter="url(#a)"/>
    </mask>
    <path mask="url(#b)" fill="#fff" stroke="#fff" stroke-width=".5" enable-background="new" d="M-267.1 414.5l2.9 10.7c0 .1 0 .1-.1.2l-14.9-1-.4-1.6-.3-.9-.2-.7 12.4-8.3s.1 0 .1.2l.1.5.4.9zm-12.8 10.8l.1.4-1.3.3-1.4-5.3 1.3-.3.1.4 1.2 4.5zm9.4 2.4l-2.6.7c-.4.1-.9-.2-1-.6l-.6-2.1 4.6.3.2.7c.1.2 0 .4-.1.6-.2.2-.4.3-.5.4zm4.1-13.9v-.3l-.2-.6c-.1-.4-.3-.7-.7-.8-.3-.1-.6-.1-.9.1l-12.1 8.1v-.1a.8.8 0 0 0-1.1-.6l-1.3.3c-.5.1-.8.6-.6 1.1l1.4 5.3c.1.2.2.4.4.6.2.1.5.2.7.1l1.3-.3c.2-.1.4-.2.6-.4.1-.2.2-.5.1-.7v-.1l3.2.2.7 2.4c.1.5.4.8.8 1.1.4.2.9.3 1.4.2l2.6-.7c.5-.1.8-.4 1.1-.8.2-.4.3-.9.2-1.4l-.1-.4 4.8.3c.3 0 .6-.1.8-.3.2-.3.3-.6.2-1l-3.3-11.3z"/>
</svg>
