<svg width="25" height="24" viewBox="0 0 25 24" xmlns="http://www.w3.org/2000/svg" xmlns:xlink="http://www.w3.org/1999/xlink">
    <title>
        Slice 1
    </title>
    <defs>
        <rect id="a" x="-205" y="-69" width="610" height="241" rx="4"/>
        <filter x="-50%" y="-50%" width="200%" height="200%" filterUnits="objectBoundingBox" id="b">
            <feOffset dy="2" in="SourceAlpha" result="shadowOffsetOuter1"/>
            <feGaussianBlur stdDeviation="2" in="shadowOffsetOuter1" result="shadowBlurOuter1"/>
            <feColorMatrix values="0 0 0 0 0 0 0 0 0 0 0 0 0 0 0 0 0 0 0.15 0" in="shadowBlurOuter1"/>
        </filter>
    </defs>
    <g fill="none" fill-rule="evenodd">
        <mask id="c" fill="#fff">
            <use xlink:href="#a"/>
        </mask>
        <use fill="#000" filter="url(#b)" xlink:href="#a"/>
        <use fill="#FFF" xlink:href="#a"/>
        <g mask="url(#c)">
            <path d="M.333 0h24v24h-24z"/>
            <path d="M21.533 13.2h-7.2a.8.8 0 0 0-.8.8v7.2a.8.8 0 0 0 .8.8h7.2a.8.8 0 0 0 .8-.8V14a.8.8 0 0 0-.8-.8m-11.2 0h-7.2a.8.8 0 0 0-.8.8v7.2a.8.8 0 0 0 .8.8h7.2a.8.8 0 0 0 .8-.8V14a.8.8 0 0 0-.8-.8M21.533 2h-7.2a.8.8 0 0 0-.8.8V10a.8.8 0 0 0 .8.8h7.2a.8.8 0 0 0 .8-.8V2.8a.8.8 0 0 0-.8-.8m-11.2 0h-7.2a.8.8 0 0 0-.8.8V10a.8.8 0 0 0 .8.8h7.2a.8.8 0 0 0 .8-.8V2.8a.8.8 0 0 0-.8-.8" fill="#282828" opacity=".8"/>
        </g>
    </g>
</svg>
