<svg xmlns="http://www.w3.org/2000/svg" viewBox="-283.3 413.6 20.5 15.5" width="18" height="13.5">
    <path fill="#fff" stroke="#fff" stroke-width=".5" d="M-265.7 425l-2.3-.6-.1-.4c1.6-.3 2.4-.8 2.4-.8.1-.1.2-.2.2-.3 0-.1 0-.3-.2-.4 0 0-1.1-.9-1.1-4 0-2.7-.7-4.1-2-4.1h-.1c-.4-.4-.8-.6-1.6-.6-.2 0-.3.1-.4.2-.1.1-.1.3 0 .4.1.1.2.2.4.2.6 0 .7.1 1.1.5.1.1.2.1.3.1h.3c.7 0 1.1 1.2 1.1 3.3 0 2.3.6 3.6 1 4.2-.4.2-1.1.4-2.1.5-.2 0-.4.2-.4.5l.3 1.1c0 .1.2.3.3.3l2.5.6c1.1.3 1.9 1.1 2 2.2h-2.9v.8h3.3c.2 0 .4-.2.4-.4.3-1.5-.8-2.9-2.4-3.3zm-16.4 3.1c.2-1.1 1-2 2-2.2l2.5-.6c.1 0 .3-.2.3-.3l.3-1.2c0-.1 0-.3-.1-.4-.6-.6-1-1.4-1.1-2.2 0-.2-.2-.4-.4-.4h-.1c-.1 0-.2-.1-.2-.2l-.2-1.2v-.2s.1-.1.2-.1c.2 0 .4-.2.4-.4v-.1c0-.3-.1-1.2-.1-1.5 0-.8 0-1.7 2.4-1.7.1 0 .2 0 .2-.1.7-.5 1.4-.5 2-.5.8 0 1.4.2 1.7.7.4.6.2.8.1 1l-.3.3c-.1.1-.1.2-.1.3l-.1 1.5c0 .2.2.4.4.4.1 0 .1 0 .1.1 0 0 .1.1 0 .2l-.2 1.2c0 .1-.1.2-.2.2-.2 0-.4.2-.4.4-.1.9-.5 1.7-1.1 2.3-.1.1-.2.3-.1.4l.3 1.2c0 .2.2.3.3.3l2.5.6c1.1.3 1.9 1.1 2 2.2h-13zm11.4-3.1l-2.3-.6-.2-.7c.6-.6 1-1.4 1.2-2.3.4-.1.6-.4.7-.8l.2-1.2c.1-.4-.2-.9-.6-1.1l.1-1 .2-.2c.4-.4.7-1.1 0-2.1-.5-.7-1.3-1.1-2.4-1.1-.4 0-1.4 0-2.4.6-2.7.1-3.1 1.4-3.1 2.6 0 .3.1.8.1 1.2-.4.2-.7.6-.6 1.1l.2 1.2c.1.4.4.8.8.9.1.8.5 1.6 1.1 2.2l-.2.7-2.3.6c-1.6.4-2.7 1.8-2.7 3.5 0 .2.2.4.4.4h14.2c.2 0 .4-.2.4-.4-.1-1.7-1.2-3.1-2.8-3.5z"/>
</svg>
