<svg xmlns="http://www.w3.org/2000/svg" viewBox="-282.7 412.4 21 16.9">
    <path fill="#282828" stroke="#282828" d="M-280.9 426.1c-.7 0-1.3.6-1.3 1.3s.6 1.3 1.3 1.3c.7 0 1.3-.6 1.3-1.3.1-.7-.5-1.3-1.3-1.3m17.8.5h-13.3c-.5 0-.8.4-.8.8 0 .5.4.8.8.8h13.3c.5 0 .8-.4.8-.8.1-.4-.3-.8-.8-.8m-17.8-7.1c-.7 0-1.3.6-1.3 1.3s.6 1.3 1.3 1.3 1.3-.6 1.3-1.3-.5-1.3-1.3-1.3m17.8.5h-13.3c-.5 0-.8.4-.8.8s.4.8.8.8h13.3c.5 0 .8-.4.8-.8s-.3-.8-.8-.8m-17.8-7.1c-.7 0-1.3.6-1.3 1.3s.6 1.3 1.3 1.3 1.3-.6 1.3-1.3-.5-1.3-1.3-1.3m17.8.5h-13.3c-.5 0-.8.4-.8.8s.4.8.8.8h13.3c.5 0 .8-.4.8-.8s-.3-.8-.8-.8"/>
</svg>
