<svg width="25" height="24" viewBox="0 0 25 24" xmlns="http://www.w3.org/2000/svg" xmlns:xlink="http://www.w3.org/1999/xlink">
    <title>
        Slice 1
    </title>
    <defs>
        <rect id="a" x="-263" y="-69" width="610" height="241" rx="4"/>
        <filter x="-50%" y="-50%" width="200%" height="200%" filterUnits="objectBoundingBox" id="b">
            <feOffset dy="2" in="SourceAlpha" result="shadowOffsetOuter1"/>
            <feGaussianBlur stdDeviation="2" in="shadowOffsetOuter1" result="shadowBlurOuter1"/>
            <feColorMatrix values="0 0 0 0 0 0 0 0 0 0 0 0 0 0 0 0 0 0 0.15 0" in="shadowBlurOuter1"/>
        </filter>
    </defs>
    <g fill="none" fill-rule="evenodd">
        <mask id="c" fill="#fff">
            <use xlink:href="#a"/>
        </mask>
        <use fill="#000" filter="url(#b)" xlink:href="#a"/>
        <use fill="#FFF" xlink:href="#a"/>
        <g mask="url(#c)">
            <path d="M.778 0h24v24h-24z"/>
            <path d="M4.115 17.238a1.337 1.337 0 1 0 0 2.674 1.337 1.337 0 0 0 0-2.674m17.818.492H8.643a.845.845 0 1 0 0 1.69h13.29a.845.845 0 1 0 0-1.69M4.115 10.62a1.337 1.337 0 1 0 0 2.675 1.337 1.337 0 0 0 0-2.675m17.818.492H8.643a.845.845 0 1 0 0 1.69h13.29a.845.845 0 1 0 0-1.69M4.115 4a1.337 1.337 0 1 0 0 2.675 1.337 1.337 0 0 0 0-2.675m3.682 1.337c0-.466.379-.844.845-.844h13.291a.845.845 0 1 1 0 1.689H8.643a.845.845 0 0 1-.846-.845" stroke="#282828" fill="#282828" opacity=".8"/>
        </g>
    </g>
</svg>
