<svg width="24" height="24" viewBox="0 0 24 24" xmlns="http://www.w3.org/2000/svg" xmlns:xlink="http://www.w3.org/1999/xlink">
    <title>
        Slice 1
    </title>
    <defs>
        <rect id="a" x="-30" y="-69" width="610" height="241" rx="4"/>
        <filter x="-50%" y="-50%" width="200%" height="200%" filterUnits="objectBoundingBox" id="b">
            <feOffset dy="2" in="SourceAlpha" result="shadowOffsetOuter1"/>
            <feGaussianBlur stdDeviation="2" in="shadowOffsetOuter1" result="shadowBlurOuter1"/>
            <feColorMatrix values="0 0 0 0 0 0 0 0 0 0 0 0 0 0 0 0 0 0 0.15 0" in="shadowBlurOuter1"/>
        </filter>
    </defs>
    <g fill="none" fill-rule="evenodd">
        <mask id="c" fill="#fff">
            <use xlink:href="#a"/>
        </mask>
        <use fill="#000" filter="url(#b)" xlink:href="#a"/>
        <use fill="#FFF" xlink:href="#a"/>
        <g mask="url(#c)">
            <path d="M0 0h24v24H0z"/>
            <path d="M4.558 12.976l2.205 2.205a.75.75 0 1 1-1.06 1.06L2.22 12.76a.75.75 0 0 1 0-1.06l3.478-3.48a.75.75 0 1 1 1.06 1.061l-2.194 2.196H21.25a.751.751 0 0 1 .53 1.28.751.751 0 0 1-.53.22H4.558z" fill="#282828" opacity=".8"/>
        </g>
    </g>
</svg>
