<svg width="12" height="12" viewBox="0 0 12 12" xmlns="http://www.w3.org/2000/svg">
    <title>
        Slice 1
    </title>
    <path d="M11.348 1.304H5.635A1.955 1.955 0 0 0 3.783 0C2.922 0 2.217.548 1.93 1.304H.652A.646.646 0 0 0 0 1.957c0 .365.287.652.652.652H1.93a1.956 1.956 0 0 0 1.853 1.304c.86 0 1.565-.548 1.852-1.304h5.713A.646.646 0 0 0 12 1.957a.646.646 0 0 0-.652-.653zM3.783 2.61a.646.646 0 0 1-.653-.652c0-.366.287-.653.653-.653.365 0 .652.287.652.653a.646.646 0 0 1-.652.652zM0 6c0 .365.287.652.652.652h5.713a1.955 1.955 0 0 0 1.852 1.305c.861 0 1.566-.548 1.853-1.305h1.278A.646.646 0 0 0 12 6a.646.646 0 0 0-.652-.652H10.07a1.955 1.955 0 0 0-1.853-1.305c-.86 0-1.565.548-1.852 1.305H.652A.646.646 0 0 0 0 6zm7.565 0c0-.365.287-.652.652-.652.366 0 .653.287.653.652a.646.646 0 0 1-.653.652A.646.646 0 0 1 7.565 6zm3.783 3.391H5.635a1.955 1.955 0 0 0-1.852-1.304c-.861 0-1.566.548-1.853 1.304H.652a.646.646 0 0 0-.652.652c0 .366.287.653.652.653H1.93A1.956 1.956 0 0 0 3.783 12c.86 0 1.565-.548 1.852-1.304h5.713a.646.646 0 0 0 .652-.653.646.646 0 0 0-.652-.652zm-7.565 1.305a.646.646 0 0 1-.653-.653c0-.365.287-.652.653-.652.365 0 .652.287.652.652a.646.646 0 0 1-.652.653z" fill="#282828" fill-rule="evenodd" fill-opacity=".7"/>
</svg>
