<svg xmlns="http://www.w3.org/2000/svg" viewBox="-282.3 410.9 19.1 20">
    <path fill="#282828" d="M-265 421.7c-.2-.1-.3-.3-.3-.6v-.5c0-.2.1-.4.3-.6l1.2-1c.5-.4.6-1 .5-1.5-.4-1.2-1.1-2.3-1.9-3.3-.4-.4-1-.6-1.5-.4-.5.2-1.1.4-1.5.6-.2.1-.4.1-.6-.1-.1-.1-.3-.2-.4-.2-.2-.1-.3-.3-.4-.5l-.2-1.6c-.1-.6-.5-1-1.1-1.2-1.2-.2-2.5-.2-3.8 0-.6.1-1 .6-1.1 1.1-.1.5-.2 1.2-.2 1.6 0 .2-.2.4-.4.5-.1.1-.3.2-.4.2-.2.1-.4.1-.6.1l-1.5-.6c-.5-.2-1.1-.1-1.5.4-.8 1-1.5 2.1-1.9 3.3-.2.5 0 1.1.5 1.5.4.3.9.7 1.2 1 .2.1.3.3.3.6v.5c0 .2-.1.4-.3.6l-1.2 1c-.5.4-.6 1-.5 1.5.4 1.2 1.1 2.3 1.9 3.3.4.4 1 .6 1.5.4.5-.2 1.1-.4 1.5-.6.2-.1.4-.1.6.1.1.1.3.2.4.2.2.1.3.3.4.5l.2 1.6c.1.6.5 1 1.1 1.2 1.3.2 2.5.2 3.8 0 .6-.1 1-.6 1.1-1.1.1-.5.2-1.2.2-1.6 0-.2.2-.4.4-.5.1-.1.3-.2.4-.2.2-.1.4-.1.6-.1l1.5.6c.5.2 1.1.1 1.5-.4.8-1 1.5-2.1 1.9-3.3.2-.5 0-1.1-.5-1.5-.4-.4-.8-.7-1.2-1zm-7.8 3.3c-2.3 0-4.1-1.8-4.1-4.1s1.8-4.1 4.1-4.1 4.1 1.8 4.1 4.1-1.8 4.1-4.1 4.1z"/>
    <path opacity=".8" fill="#282828" d="M-272.8 418.2c-1.5 0-2.7 1.2-2.8 2.7 0 1.5 1.2 2.7 2.7 2.8h.1c1.5 0 2.7-1.3 2.7-2.8 0-1.5-1.2-2.7-2.7-2.7z"/>
</svg>
