<svg xmlns="http://www.w3.org/2000/svg" viewBox="-281 410.9 15.5 20" width="13.81" height="17.76">
    <path fill="#fff" d="M-266 419.8h-3.3v-2.2c0-.3-.2-.6-.6-.6h-.9l-.5-2.3c-.1-.3-.3-.4-.5-.4h-.8v-2.8c0-.3-.2-.6-.5-.6h-.1c-.3 0-.5.3-.5.6v2.8h-.8c-.3 0-.5.2-.5.4l-.5 2.3h-.9c-.3 0-.6.2-.6.6v4.4h-3.3c-.3 0-.6.2-.6.6v7.8c0 .3.2.6.6.6h14.4c.3 0 .6-.2.6-.6v-10c-.2-.4-.4-.6-.7-.6zm-11.1 10h-2.8v-6.7h2.8v6.7zm2.9-14.5h1.9l.3 1.7h-2.5l.3-1.7zm3.7 5c0 .1 0 .1 0 0v9.4h-5.6V418h5.6v2.3zm3.9 9.5h-2.8v-8.9h2.8v8.9z"/>
</svg>
